<svg width="20" height="17" viewBox="0 0 20 17" fill="none" xmlns="http://www.w3.org/2000/svg">
<path d="M18.4578 1.50292C17.9691 1.02645 17.3889 0.648483 16.7503 0.390606C16.1117 0.13273 15.4272 0 14.7359 0C14.0446 0 13.3601 0.13273 12.7215 0.390606C12.0829 0.648483 11.5026 1.02645 11.0139 1.50292L9.99974 2.4913L8.98554 1.50292C7.99842 0.540937 6.6596 0.000498631 5.26361 0.000498641C3.86761 0.000498651 2.52879 0.540937 1.54168 1.50292C0.554557 2.46491 1.0401e-08 3.76964 0 5.1301C-1.0401e-08 6.49055 0.554557 7.79528 1.54168 8.75727L2.55588 9.74565L9.99974 17L17.4436 9.74565L18.4578 8.75727C18.9467 8.28102 19.3346 7.71557 19.5992 7.0932C19.8638 6.47084 20 5.80377 20 5.1301C20 4.45642 19.8638 3.78935 19.5992 3.16699C19.3346 2.54463 18.9467 1.97917 18.4578 1.50292Z" fill="#FF0099"/>
</svg>
