<svg width="22" height="17" viewBox="0 0 22 17" fill="none" xmlns="http://www.w3.org/2000/svg">
<path d="M17.4748 10.0041L20.4497 12.979L17.4748 15.9539" stroke="white" stroke-width="2" stroke-linecap="round" stroke-linejoin="round"/>
<path d="M17.4748 7.00392L20.4497 4.00403L17.4748 1.00414" stroke="white" stroke-width="2" stroke-linecap="round" stroke-linejoin="round"/>
<path d="M1 4.00415C2.16667 4.00415 4.8 4.00415 6 4.00415C7.5 4.00415 9 5.00415 10 8.00415C11 11.0042 12 13.0042 14.5 13.0042C16.5 13.0042 18.8333 13.0042 20 13.0042" stroke="white" stroke-width="2" stroke-linecap="round"/>
<path d="M1 13.0543C2.16667 13.0543 4.8 13.0543 6 13.0543C6.92482 13.0543 7.84963 12.6742 8.65727 11.6796M20 4.05432C18.8333 4.05432 16.5 4.05432 14.5 4.05432C13.2148 4.05432 12.326 4.58287 11.6299 5.50412" stroke="white" stroke-width="2" stroke-linecap="round"/>
</svg>
